<svg xmlns="http://www.w3.org/2000/svg" xmlns:xlink="http://www.w3.org/1999/xlink" version="1.1" id="route_marker_start-51.7987,19.60391" x="0px" y="0px" viewBox="0 0 30 30" enable-background="new 0 0 30 30" xml:space="preserve" style="position: absolute; left: 907px; top: 234px;" class="routeWaypointMarkerHighlighted">

	<g>
		<path fill="#00B9D3" d="M15,29.2C7.1,29.2,0.8,22.9,0.8,15S7.1,0.8,15,0.8S29.2,7.1,29.2,15S22.9,29.2,15,29.2z" id="shapeBackground"></path>
		<path fill="#005D73" d="M15,1.5c7.4,0,13.5,6.1,13.5,13.5S22.4,28.5,15,28.5S1.5,22.4,1.5,15S7.6,1.5,15,1.5 M15,0    C6.7,0,0,6.7,0,15c0,8.3,6.7,15,15,15c8.3,0,15-6.7,15-15C30,6.7,23.3,0,15,0L15,0z"></path>
	</g>

<svg xmlns="http://www.w3.org/2000/svg" xmlns:xlink="http://www.w3.org/1999/xlink" version="1.1" x="0px" y="0px" viewBox="0 0 30 30" enable-background="new 0 0 30 30" xml:space="preserve">

<g>
	<g>
		<g>
			<g>
				<polygon fill="#FFFFFF" points="19.6,9.6 6.7,13 13.6,15.6 16.2,22.6     "></polygon>
			</g>
		</g>
	</g>
</g>
</svg></svg>
