<svg xmlns="http://www.w3.org/2000/svg" viewBox="0 0 30 30" style="position:absolute;left:907px;top:234px" class="routeWaypointMarkerHighlighted"><path fill="#00B9D3" d="M15 29.2C7.1 29.2.8 22.9.8 15S7.1.8 15 .8 29.2 7.1 29.2 15 22.9 29.2 15 29.2z"/><path fill="#005D73" d="M15 1.5c7.4 0 13.5 6.1 13.5 13.5S22.4 28.5 15 28.5 1.5 22.4 1.5 15 7.6 1.5 15 1.5M15 0C6.7 0 0 6.7 0 15s6.7 15 15 15 15-6.7 15-15S23.3 0 15 0z"/><g fill="#fff"><path d="M21.355 12.995L14.72 9.677v6.636M13.336 8.433c-.415 0-.69.484-.69.69v12.444h1.38V9.124c0-.207-.275-.69-.69-.69z"/></g></svg>